Patient4_TMGait_0pt2_01_left_12_EMG.mot
version=1
nRows=33
nColumns=33
inDegrees=no
endheader
time	1LAddLong	2LGlutMax	3LGlutMed	4LIliopsoas	5LSemiMemb	6LBicFemLong	7LRecFem	8LVastMed	9LVastLat	10LGasMed	11LTibAnt	12lTibPost	13LPeroneusLong	14LSol	15LExtDigLong	16LFlexDigLong	17RAddLong	18RGlutMax	19RGlutMed	20RIliopsoas	21RSemiMemb	22RBicFemLong	23RRecFem	24RVastMed	25RVastLat	26RGasMed	27RTibAnt	28RTibPost	29RPeroneusLong	30RSol	31RExtDigLong	32RFlexDigLong
28.715	0.005798	-0.011444	-0.11444	0.011444	0.024261	0.11551	-0.063324	-0.008087	0.00351	0.032806	-0.006866	-0.003815	-0.047607	0.066986	-0.017548	-0.001831	-0.011292	0.035858	0.69504	-0.18967	0.026093	0.056763	0.053864	-0.054474	-0.054779	0.000458	0.045471	-0.001984	-0.090485	-0.004272	0	-0.030212
28.716	0.006561	0.00885	-0.03952	0.037384	0.030975	0.082703	-0.10239	0.001678	0.015411	0.039215	-0.042419	-0.007172	0.30197	0.016174	-0.044861	0.001831	-0.021973	0.044708	0.18463	0.084686	0.005951	0.028381	0.016632	-0.10239	0.001678	0.003052	-0.00885	-0.001221	0.077667	0.019531	-0.002747	-0.017395
28.717	0.006714	-0.005035	-0.065918	0.038147	0.011749	0.099335	-0.085449	0.010223	0.001068	0.053406	-0.039978	-0.001678	-0.23987	0.063934	-0.04425	-0.00061	-0.00824	0.030365	0.24994	0.21286	0.001984	0.023499	-0.15717	-0.061035	0.12116	0.000458	-0.014496	0.00473	0.2179	0.00885	-0.007324	-0.019379
28.718	0.016327	-0.018463	-0.070496	0.040588	0.021362	0.070496	-0.056305	0.012054	0.037384	0.035858	-0.049133	0.016174	-0.22964	0.024261	-0.11368	-0.009613	0.000458	0.017548	0.10544	0.18982	-0.031433	0.001678	-0.16892	0.00885	0.1355	-0.010376	0.079498	-0.00412	0.16876	0.054474	-0.003052	-0.02182
28.719	0.017853	0.005798	-0.13031	0.020142	0.023346	0.045166	0.007477	0.006561	0.064545	0.02243	-0.11322	0.009308	0.22217	-0.017395	-0.055542	-0.002594	0.003204	0.018005	-0.09613	0.14343	-0.028534	-0.032349	-0.075531	0.094299	0.18372	-0.010223	0.14282	-0.005646	0.14267	0.055237	-0.000458	-0.015564
28.72	0.006714	0.005341	-0.11108	0.002136	0.009918	0.042725	0.045471	-0.005493	0.012512	0.03418	0.040588	0.000916	-0.005035	-0.028534	-0.005951	-0.007935	0.02243	0.076294	-0.12375	0.073853	0.052338	-0.006714	-0.078888	0.093231	0.2211	-0.005341	0.21606	-0.005493	0.034943	0.037689	-0.00351	-0.016327
28.721	-0.00824	0.036011	-0.014954	-0.009308	0.009003	-0.086212	0.033722	-0.007172	-0.003052	0.030823	0.14893	0.002899	-0.005798	-0.068359	0.21011	-0.005035	0.020599	0.076447	-0.17136	-0.036469	0.088196	0.002136	-0.072174	0.084076	0.14694	-0.007019	0.13672	-0.001831	-0.041046	0.008087	-0.005798	-0.02121
28.722	-0.001526	0.031433	0.19211	-0.006104	0.009155	-0.18356	0.053253	-0.001221	-0.002441	0.013428	0.12436	0.005493	0.19882	0.022125	0.18631	0.006714	0.008392	0.10407	-0.014191	-0.014343	0.11002	0.021973	-0.054016	0.082397	0.065613	0	0.14786	-0.001526	-0.11643	0.030518	-0.004883	-0.008087
28.723	-0.010071	0.024261	0.29495	0.005951	0.008087	-0.13062	0.068207	0.003204	0.026245	0.01236	0.026855	0.007019	0.22247	0.055542	0.18112	0.005951	0.000458	0.005493	0.05127	0.075378	0.05249	0.016022	0.009766	-0.000305	-0.018158	0.000153	0.29327	-0.005341	-0.15091	0.034027	-0.002594	-0.018005
28.724	-0.00351	-0.01236	0.13626	0.020447	0.002441	-0.062714	0.052948	0.019531	0.038452	0.029144	0.083771	0.006561	0.023804	0.073853	0.1767	0.010986	0.010681	0.004425	-0.5159	0.14023	0.046844	-0.010223	0.02243	-0.022125	-0.070343	0.000763	0.21896	-0.001373	-0.09613	0.019836	-0.000458	-0.013428
28.725	0.003662	-0.007172	0.019531	0.014191	-0.000305	-0.046997	0.080261	0.023346	0.012512	0.025024	-0.061951	0.001221	-0.022278	0.073547	0.032806	0.011139	0.016479	0.023041	-0.49301	0.05127	0.02655	-0.008087	0.067444	-0.044403	-0.094299	0	-0.041504	-0.006409	-0.003204	-0.009155	-0.001373	-0.021667
28.726	0.008545	0.045013	0.20813	0.019989	-0.001678	-0.009918	0.064545	0.020447	0.029755	0.003052	0.1059	0.006104	0.13031	0.08728	0.029755	-0.007019	0.007019	0.031281	-0.36987	-0.1947	0.01709	0.000305	0.0737	-0.031586	-0.13931	-0.007629	-0.43396	-0.008087	-0.030365	0.046387	0	-0.019531
28.727	-0.011139	0.059052	0.26352	0.010071	0.000305	0.005646	0.10757	0.012512	0.022888	-0.023041	0.15121	-0.001068	-0.000305	0.11307	-0.1503	0.000763	0.011292	0.093231	1.2234	-0.37125	0.016022	0.013733	0.070343	-0.07431	-0.13596	0.001678	-0.33112	-0.007782	-0.016174	0.03479	-0.002747	-0.019226
28.728	0	0.029144	-0.026245	0.010834	0.005188	0.023956	0.090485	-0.005493	-0.026093	-0.066833	0.00946	0.001221	-0.035248	0.13809	0.30518	-0.003967	0.002136	-0.005341	0.96344	-0.21545	0.026398	0.015869	0.11536	-0.036316	-0.12711	0.002594	-0.057831	-0.006561	0.032043	0.052643	0.001221	-0.014648
28.729	0.003052	0.011444	-0.064087	0.014954	0	0.001984	0.029449	-0.020752	-0.031128	-0.055695	0.18021	0.004272	-0.020294	0.13626	-0.17425	-0.004578	0.000305	-0.024719	-0.30243	-0.1709	0.020905	0.0177	0.16892	-0.036469	-0.076294	0.001068	0.00412	-0.005646	0.060272	0.008545	-0.002441	-0.023193
28.73	-0.007629	0.019073	-0.004883	0.005035	0.007324	0.005341	-0.078278	-0.026855	0.012512	-0.053101	0.13428	0.005188	-0.079041	0.17151	-0.59006	-0.018311	0.006561	-0.043182	-0.70358	-0.13534	0.023346	0.00824	0.16968	-0.046234	-0.04425	0.000458	-0.007477	-0.01236	0.042877	-0.005951	-0.005341	-0.017395
28.731	-0.003357	0.041809	0.069275	0.003052	-0.003967	0.018921	-0.21027	0.005951	0.065918	0.031128	0.000153	0.009003	-0.27939	0.021057	-0.50476	-0.011444	-0.000916	0.001831	0.041809	0.037994	0.030365	0.012207	0.099335	-0.04776	-0.041962	0.002747	-0.22781	-0.003052	0.03006	-0.045624	-0.002594	-0.016937
28.732	-0.009308	-0.019379	0.069885	-0.001373	0.003052	0.084686	-0.1474	0.026398	0.036316	0.011902	-0.033569	0.005341	-0.031891	-0.001221	-0.090637	-0.002289	-0.016479	0.029907	0.77347	0.047913	0.035858	0.015106	0.014801	-0.013733	0.003204	0.002594	-0.10712	-0.006714	0.017548	-0.027466	-0.00061	-0.01236
28.733	-0.022583	-0.000458	-0.021667	0.018616	0.005035	0.13809	-0.038757	-0.010223	0.001068	-0.04425	-0.35675	0.001526	0.17517	-0.068817	-0.43167	0.003052	-0.008698	0.007629	0.18555	-0.041504	0.019836	-0.011292	-0.019531	0.056152	0.063324	0.00885	0.023346	-0.002136	-0.010529	-0.003967	-0.000916	-0.010529
28.734	-0.02655	0.018921	-0.055084	0.004272	-0.005646	0.14374	0.025635	-0.001373	-0.029449	-0.022278	-0.16144	-0.001678	0.10956	0.096283	0.2214	-0.002136	-0.002899	-0.046387	-0.056	-0.012207	0.019836	-0.024719	-0.024414	0.042877	0.042877	0.007019	0.000305	-0.007324	0.051422	0.048676	-0.002136	-0.003662
28.735	-0.013733	-0.005188	-0.04364	0.015106	-0.065918	0.11444	0.00946	0.010071	-0.018158	-0.008087	-0.039215	0.002136	0.078583	0.12482	-0.27771	0.00412	0.001373	0.007172	-0.065155	0.21316	0.038757	-0.032654	0.013733	-0.006256	0.04303	0.001221	-0.13123	-0.005493	0.069733	0.074615	-0.003357	-0.007935
28.736	-0.021667	-0.019836	-0.036163	0.01297	-0.091248	0.070343	-0.002136	0.001984	0.014954	-0.005951	-0.061951	-0.005493	0.056	-0.059967	-0.096436	-0.012512	0.006866	-0.046844	-0.30685	0.34622	0.028534	-0.027924	-0.013428	-0.054016	0.018005	-0.008392	-0.18356	0.003052	0.027924	0.12604	-0.000458	-0.003052
28.737	-0.026093	-0.038757	-0.030365	0.015106	-0.11292	-0.013428	0.015869	0.001373	0.031891	0.025177	0.003052	0.002594	0.028076	-0.2327	-0.24353	-0.011902	0.016174	-0.021057	-0.50308	0.33966	0.051117	-0.028839	-0.12589	-0.089874	-0.019226	-0.005798	-0.13733	-0.008698	0.02243	0.13748	-0.002136	-0.012665
28.738	-0.015564	-0.027313	-0.040283	0.018463	-0.00473	-0.15732	0.011444	-0.011597	0.05722	0.022583	-0.005798	0.001984	0.008698	-0.32059	-0.018005	-0.007172	-0.00885	-0.006714	-0.11231	0.22461	0.021362	0.015106	-0.11322	-0.081635	-0.070343	0.000916	-0.028534	-0.005035	-0.004425	0.06546	-0.003662	-0.014648
28.739	0.00351	-0.009613	-0.009003	0.011597	0.10788	-0.23407	0.022278	-0.008392	0.065613	0.010986	-0.14191	0.002289	-0.004272	-0.31296	0.19928	0.000458	-0.00061	0.002289	0.63919	0.076599	-0.075531	0.038147	-0.041199	-0.12512	-0.072021	0.007782	0.026093	-0.005951	0.024261	0.032959	-0.003662	-0.005341
28.74	0.021362	0.017395	0.052185	0.007477	0.091095	-0.17944	0.024109	-0.000153	0.049896	0.002594	-0.14877	0.007019	0.023804	-0.22903	0.35767	0.004883	0.005493	-0.01236	0.28854	-0.015717	0.010681	-0.001678	0.028687	-0.12833	-0.094757	0.004272	0.019684	-0.009308	0.023499	0.032806	0.002594	-0.010223
28.741	0.007324	0.010071	0.010376	0.020905	0.031433	0.024261	0.058441	0.002136	0.016479	-0.005493	-0.044556	0.001373	0.079346	-0.19363	0.17273	0.003815	0.005188	-0.034637	-0.12787	-0.079193	0.014954	-0.009155	-0.049438	0.029449	-0.01297	0.00061	0.016937	-0.009766	-0.0354	0.027618	0.001068	-0.001373
28.742	-0.000153	-0.014191	0.020447	0.005798	0.01709	0.041656	0.074005	0.011749	0.009155	0.020294	0.015411	0.005493	0.027924	-0.22751	-0.017242	0.00412	0.020905	-0.049896	-0.0737	-0.082703	-0.002594	-0.03067	-0.079651	0.21088	0.14862	0.001984	-0.025482	-0.006866	0.012817	0.045471	0.003204	-0.009308
28.743	-0.001068	-0.014191	0.010834	0.003204	0.010071	0.14175	0.061646	0.016022	-0.019379	0.041199	0.019684	0.00061	-0.028687	-0.1886	0.011292	-0.002899	0.03006	-0.057373	-0.67368	-0.12482	0.019073	-0.0177	-0.02243	0.18097	0.28	0.000763	-0.022125	-0.000763	0.065308	0.046844	0.001831	-0.011292
28.744	-0.001831	-0.022736	-0.042725	0.022278	0.000153	0.26184	0.037689	0.016327	-0.015564	0.043182	-0.027313	0.006409	-0.026245	-0.079651	0.044556	-0.008392	0.030212	-0.034637	-0.21927	-0.12024	0.045166	-0.050812	0.035095	0.11032	0.30655	-0.004883	0.017395	-0.00885	0.18219	0.039063	-0.001678	-0.015564
28.745	-0.000305	-0.017242	-0.16464	0.027313	-0.076752	0.15381	-0.006714	0.00885	-0.023804	0.029297	-0.026093	0.000458	-0.049591	-0.050812	0.026398	0.002747	0.023041	0.026703	1.246	-0.11414	0.006409	-0.024872	0.055542	0.065765	0.13947	-0.005341	0.031128	-0.006866	-0.11658	0.019836	-0.006104	-0.016479
28.746	0.010376	-0.0354	-0.27374	0.012512	-0.14664	0.12222	-0.027771	0.005493	-0.019073	0.028076	0.014954	0.00473	-0.055542	-0.066376	0.13657	-0.000305	-0.010376	-0.024719	-0.010986	0.014038	-0.035858	-0.01236	0.049744	0.048981	0.029449	-0.007629	0.026398	-0.00946	-0.46707	0.017395	-0.00412	-0.009766
28.747	0.011902	-0.022278	-0.11841	0.034943	-0.091705	-0.14313	-0.010529	0.009155	-0.003967	0.007477	0.020447	-0.00412	-0.028687	-0.030365	0.29251	0.008087	0.003967	-0.008698	0.15701	0.159	-0.086212	0.027924	0.057526	0.056458	0.008698	-0.007019	0.033112	-0.003052	-0.6456	0.01358	-0.001831	-0.016327
